<svg xmlns="http://www.w3.org/2000/svg" width="1600" height="900" viewBox="0 0 1600 900" fill="none">
  <defs>
    <linearGradient id="bgGrad" x1="0" y1="0" x2="1600" y2="900" gradientUnits="userSpaceOnUse">
      <stop offset="0" stop-color="#030807"/>
      <stop offset="0.5" stop-color="#07110E"/>
      <stop offset="1" stop-color="#030807"/>
    </linearGradient>

    <radialGradient id="glowGrad" cx="0" cy="0" r="1" gradientUnits="userSpaceOnUse"
      gradientTransform="translate(486 620) rotate(90) scale(80 220)">
      <stop offset="0" stop-color="#B8FFB9"/>
      <stop offset="0.35" stop-color="#8BEA99"/>
      <stop offset="1" stop-color="#8BEA99" stop-opacity="0"/>
    </radialGradient>

    <linearGradient id="shieldLeft" x1="350" y1="300" x2="500" y2="650" gradientUnits="userSpaceOnUse">
      <stop offset="0" stop-color="#D9BD67"/>
      <stop offset="1" stop-color="#8E6B27"/>
    </linearGradient>

    <linearGradient id="shieldRight" x1="460" y1="290" x2="610" y2="650" gradientUnits="userSpaceOnUse">
      <stop offset="0" stop-color="#2B473A"/>
      <stop offset="0.45" stop-color="#13251E"/>
      <stop offset="1" stop-color="#08120F"/>
    </linearGradient>

    <linearGradient id="goldText" x1="660" y1="520" x2="1260" y2="520" gradientUnits="userSpaceOnUse">
      <stop offset="0" stop-color="#C7A851"/>
      <stop offset="0.45" stop-color="#D8BC6B"/>
      <stop offset="1" stop-color="#A78233"/>
    </linearGradient>

    <filter id="softGlow" x="-50%" y="-50%" width="200%" height="200%">
      <feGaussianBlur stdDeviation="10" result="blur"/>
      <feMerge>
        <feMergeNode in="blur"/>
        <feMergeNode in="SourceGraphic"/>
      </feMerge>
    </filter>

    <filter id="textGlow" x="-20%" y="-50%" width="140%" height="200%">
      <feGaussianBlur stdDeviation="2" result="blur"/>
      <feColorMatrix in="blur" type="matrix"
        values="1 0 0 0 0
                0 1 0 0 0
                0 0 1 0 0
                0 0 0 .22 0"/>
      <feMerge>
        <feMergeNode/>
        <feMergeNode in="SourceGraphic"/>
      </feMerge>
    </filter>
  </defs>

  <rect width="1600" height="900" fill="url(#bgGrad)"/>

  <!-- subtle background vignette -->
  <ellipse cx="840" cy="450" rx="760" ry="360" fill="#1E382C" opacity="0.10"/>
  <ellipse cx="840" cy="450" rx="620" ry="280" fill="#93F3A4" opacity="0.035"/>

  <!-- emblem glow -->
  <ellipse cx="486" cy="620" rx="220" ry="80" fill="url(#glowGrad)" filter="url(#softGlow)"/>

  <!-- shield -->
  <g transform="translate(0 10)">
    <!-- outer shape -->
    <path d="M363 308L486 260L600 308V446C600 560 549 640 486 688C423 640 363 560 363 446V308Z"
      fill="#0A1310" stroke="#B89C53" stroke-width="4"/>

    <!-- center spine -->
    <path d="M486 260V688" stroke="#7FCF8B" stroke-opacity="0.25" stroke-width="3"/>

    <!-- left blade -->
    <path d="M363 308L486 260L432 351L426 498C424 574 448 628 486 688C415 636 363 558 363 446V308Z"
      fill="url(#shieldLeft)"/>

    <!-- right field -->
    <path d="M486 260L600 308V446C600 560 549 640 486 688C523 625 544 571 548 496L551 354L486 260Z"
      fill="url(#shieldRight)"/>

    <!-- glossy highlight -->
    <path d="M453 282L506 298L442 418L432 598" stroke="#E6FFD8" stroke-opacity="0.18" stroke-width="16" stroke-linecap="round"/>

    <!-- circuit network -->
    <g stroke="#A7F3AE" stroke-width="4.5" stroke-linecap="round" stroke-linejoin="round" filter="url(#softGlow)">
      <path d="M410 414L445 460L515 454L555 434"/>
      <path d="M445 460L438 505L491 540"/>
      <path d="M491 540L538 512L555 434"/>
      <path d="M445 460L486 402L538 402"/>
    </g>

    <g fill="#EBFFD8" filter="url(#softGlow)">
      <circle cx="410" cy="414" r="10"/>
      <circle cx="445" cy="460" r="11"/>
      <circle cx="515" cy="454" r="7"/>
      <circle cx="555" cy="434" r="13"/>
      <circle cx="438" cy="505" r="10"/>
      <circle cx="491" cy="540" r="9"/>
      <circle cx="538" cy="512" r="10"/>
      <circle cx="486" cy="402" r="14"/>
      <circle cx="538" cy="402" r="7"/>
    </g>
  </g>

  <!-- wordmark -->
  <g filter="url(#textGlow)">
    <text x="640" y="515"
      fill="#E7E7E7"
      font-family="Arial, Helvetica, sans-serif"
      font-size="112"
      font-weight="700"
      letter-spacing="2">NEUROVIA</text>

    <text x="646" y="594"
      fill="url(#goldText)"
      font-family="Arial, Helvetica, sans-serif"
      font-size="60"
      font-weight="400"
      letter-spacing="11">APPLIED DEFENSE</text>
  </g>
</svg>
